<svg id="Layer_1" data-name="Layer 1" xmlns="http://www.w3.org/2000/svg" viewBox="0 0 666 156"><defs><style>.cls-1{fill:#444;stroke-miterlimit:10;}.cls-1,.cls-2,.cls-3,.cls-5{stroke:#000;}.cls-1,.cls-2,.cls-3{stroke-width:7px;}.cls-2{fill:#cc2929;}.cls-2,.cls-3,.cls-5{stroke-linejoin:round;}.cls-3{fill:#161616;}.cls-4{fill:#ffffef;}.cls-5{fill:#ffc871;stroke-width:5px;}</style></defs><title>Sidekick_logo</title><path class="cls-1" d="M199.74868,72.81914c0,37.7518-33.78488,65.91872-70.83966,73.13965-35.87983,6.992-83.1398-7.48789-118.89244,2.785C48.36712,98.65975,110.03551,50.00913,131.393,4.46346A68.31728,68.31728,0,0,1,199.74868,72.81914Z"/><path class="cls-2" d="M199.74876,72.81893h0c.50636-18.9409-9.82656-45.38626-31.44017-57.55667-16.72671,7.34926-28.99146,24.6268-28.99146,44.06851A48.05225,48.05225,0,0,0,158.12461,97.12c4.20019,3.2288,9.40824,11.26165,9.40824,18.98826a24.77178,24.77178,0,0,1-9.50744,19.419S200.01621,114.99379,199.74876,72.81893Z"/><path class="cls-3" d="M162.83954,72.78988a23.46189,23.46189,0,0,0,2.75574-2.30924c16.90433-13.91319,32.25954-13.70845,32.25954-13.70845-2.91548-10.70441-7.51453-20.44006-12.76021-26.22616h-35.8828a23.332,23.332,0,1,0,13.47127,42.361S162.78807,72.83408,162.83954,72.78988Z"/><circle class="cls-4" cx="150.7196" cy="53.90744" r="6.27187"/><path class="cls-5" d="M189.34711,57.72785l29.222,2.45146L191.33952,71.67469S183.702,67.68988,189.34711,57.72785Z"/><path d="M272.86234,111.099a44.45774,44.45774,0,0,1-15.05176-2.63672,39.82392,39.82392,0,0,1-13.42187-8.10058l8.72461-10.4502a43.78176,43.78176,0,0,0,9.44336,5.94434,25.24054,25.24054,0,0,0,10.59375,2.2041,12.90391,12.90391,0,0,0,7.1416-1.67676,5.28184,5.28184,0,0,0,2.541-4.65039v-.19141a5.81336,5.81336,0,0,0-.52929-2.541,5.3556,5.3556,0,0,0-2.01856-2.06055,21.23825,21.23825,0,0,0-4.13379-1.918q-2.644-.95653-6.87207-2.01269a83.846,83.846,0,0,1-9.22949-2.78028,25.93936,25.93936,0,0,1-7.01562-3.7871,15.295,15.295,0,0,1-4.47071-5.6084,19.46406,19.46406,0,0,1-1.58594-8.34082v-.19141a19.44692,19.44692,0,0,1,1.71387-8.293,18.87043,18.87043,0,0,1,4.80957-6.375,21.61493,21.61493,0,0,1,7.39453-4.123,29.72206,29.72206,0,0,1,9.47461-1.4375,40.14625,40.14625,0,0,1,13.56543,2.20508,39.37012,39.37012,0,0,1,11.36035,6.32715L287.626,61.72594a48.74354,48.74354,0,0,0-8.81933-4.8418,22.56067,22.56067,0,0,0-8.62891-1.77344q-4.314,0-6.4707,1.67774a5.09534,5.09534,0,0,0-2.15723,4.16992v.19238a6.03183,6.03183,0,0,0,.625,2.82812,5.64716,5.64716,0,0,0,2.25879,2.15723,21.23942,21.23942,0,0,0,4.46973,1.82129q2.83593.8628,7.16211,2.01367a68.95908,68.95908,0,0,1,9.083,3.01953A25.41648,25.41648,0,0,1,291.878,77.017a15.37319,15.37319,0,0,1,4.13281,5.5127,18.71311,18.71311,0,0,1,1.39453,7.57324v.19238a20.76383,20.76383,0,0,1-1.80957,8.86719,18.20283,18.20283,0,0,1-5.04883,6.51953,22.72346,22.72346,0,0,1-7.72949,4.02637A33.59881,33.59881,0,0,1,272.86234,111.099Z"/><path d="M318.03229,39.06969h2.39845a6.47558,6.47558,0,0,1,6.47558,6.47557v0a6.47559,6.47559,0,0,1-6.47558,6.47558h-2.39845a6.47559,6.47559,0,0,1-6.47558-6.47558v0A6.47558,6.47558,0,0,1,318.03229,39.06969ZM311.9405,57.68h14.582V109.099h-14.582Z"/><path d="M361.34284,110.058a22.83638,22.83638,0,0,1-8.72949-1.72657,21.57141,21.57141,0,0,1-7.48242-5.13183,25.5245,25.5245,0,0,1-5.22852-8.34668,30.55553,30.55553,0,0,1-1.96679-11.36719v-.19141a30.57158,30.57158,0,0,1,1.96679-11.36816,25.98245,25.98245,0,0,1,5.18067-8.3457,21.1231,21.1231,0,0,1,7.43457-5.13282,23.097,23.097,0,0,1,8.82519-1.72656,18.3158,18.3158,0,0,1,9.64063,2.30274,25.73021,25.73021,0,0,1,6.37988,5.37207V39.06969h14.581V109.099h-14.581v-7.38672a23.1104,23.1104,0,0,1-6.47559,5.9961A17.82657,17.82657,0,0,1,361.34284,110.058Zm3.74121-12.375a11.7378,11.7378,0,0,0,4.84473-1.00684,11.59739,11.59739,0,0,0,3.93262-2.87793,14.326,14.326,0,0,0,2.68652-4.50879,16.15609,16.15609,0,0,0,1.00684-5.80371v-.19141a16.16524,16.16524,0,0,0-1.00684-5.80468,14.34307,14.34307,0,0,0-2.68652-4.50782,11.57171,11.57171,0,0,0-3.93262-2.87793,12.14864,12.14864,0,0,0-9.68945,0,12.05318,12.05318,0,0,0-3.98047,2.87793,13.95145,13.95145,0,0,0-2.73438,4.46,16.0445,16.0445,0,0,0-1.00683,5.85253v.19141a16.13509,16.13509,0,0,0,1.00683,5.80371,13.83108,13.83108,0,0,0,2.73438,4.50879,12.08079,12.08079,0,0,0,3.98047,2.87793A11.7312,11.7312,0,0,0,365.08405,97.683Z"/><path d="M429.35651,110.25035a29.30734,29.30734,0,0,1-10.69628-1.91895,24.74078,24.74078,0,0,1-8.53809-5.46777,25.275,25.275,0,0,1-5.61133-8.39355,27.83772,27.83772,0,0,1-2.01465-10.793V83.4857a28.7591,28.7591,0,0,1,1.87012-10.36035,26.34537,26.34537,0,0,1,5.22852-8.53809,24.38169,24.38169,0,0,1,18.32226-7.86621A25.04477,25.04477,0,0,1,439.045,59.02379a22.62717,22.62717,0,0,1,7.81836,6.1875,25.74985,25.74985,0,0,1,4.60449,8.9209,36.90843,36.90843,0,0,1,1.48731,10.50488q0,.86279-.04785,1.82226-.04982.96095-.14356,2.01465H416.98151a12.2773,12.2773,0,0,0,4.36426,7.53028,13.06379,13.06379,0,0,0,8.20215,2.542,16.24949,16.24949,0,0,0,6.52344-1.24707,22.16412,22.16412,0,0,0,5.94726-4.02832l8.34668,7.38672a25.88154,25.88154,0,0,1-8.82617,7.05078A27.381,27.381,0,0,1,429.35651,110.25035Zm9.40137-30.88965a14.20464,14.20464,0,0,0-3.4541-7.91406,9.5601,9.5601,0,0,0-7.38672-3.02246,9.79465,9.79465,0,0,0-7.43457,2.97461,14.92709,14.92709,0,0,0-3.69336,7.96191Z"/><path d="M463.795,39.06969h14.58106V76.38707L495.45124,57.68h17.46L493.34089,77.92125,524.675,126.00846H507.98361L483.46,88.09019l-5.084,5.37207V109.099H463.795Z"/><path d="M527.34772,39.06969h2.39845a6.47558,6.47558,0,0,1,6.47558,6.47557v0a6.47559,6.47559,0,0,1-6.47558,6.47558h-2.39845a6.47558,6.47558,0,0,1-6.47558-6.47558v0A6.47557,6.47557,0,0,1,527.34772,39.06969ZM521.25593,57.68h14.582V109.099h-14.582Z"/><path d="M573.82429,110.25035A26.96574,26.96574,0,0,1,563.128,108.14a25.83721,25.83721,0,0,1-14.05371-14.15039,26.56964,26.56964,0,0,1-2.01465-10.3125V83.4857a26.92859,26.92859,0,0,1,2.01465-10.36035,26.65554,26.65554,0,0,1,5.56347-8.53809A25.90363,25.90363,0,0,1,563.128,58.8314a27.45786,27.45786,0,0,1,10.88769-2.11035,27.904,27.904,0,0,1,12.08692,2.30274,27.1464,27.1464,0,0,1,8.44238,6.331l-8.92187,9.59277a23.91843,23.91843,0,0,0-5.13184-4.125A12.91642,12.91642,0,0,0,573.92,69.28844a11.31275,11.31275,0,0,0-5.03613,1.10253,12.44908,12.44908,0,0,0-3.9336,3.02247,13.73248,13.73248,0,0,0-2.58984,4.46,15.92574,15.92574,0,0,0-.91113,5.42089v.19141a16.61755,16.61755,0,0,0,.91113,5.56348,13.17356,13.17356,0,0,0,2.6377,4.50879,12.49157,12.49157,0,0,0,4.125,3.02246,12.70489,12.70489,0,0,0,5.37207,1.10254,13.14258,13.14258,0,0,0,6.37988-1.48633,26.943,26.943,0,0,0,5.41992-3.98145l8.53711,8.63379a32.76676,32.76676,0,0,1-8.53711,6.7627Q581.49616,110.24987,573.82429,110.25035Z"/><path d="M604.33015,39.06969H618.9112V76.38707L635.9864,57.68h17.46L633.87605,77.92125l31.33412,48.08721h-16.6914L623.99519,88.09019l-5.084,5.37207V109.099H604.33015Z"/></svg>