<svg id="Layer_1" data-name="Layer 1" xmlns="http://www.w3.org/2000/svg" viewBox="0 0 750 185"><defs><style>.cls-1{fill:#c22d4b;}.cls-2{fill:#231f20;}</style></defs><circle class="cls-1" cx="703.51883" cy="122.04308" r="4.06553"/><path class="cls-1" d="M747.5,126.10836l-13.18339-1.10564h-.0001c-.08752-.01059-10.24463-1.19643-21.155,7.78349a15.23139,15.23139,0,0,1-1.78629,1.49685c-.03338.0285-.10137.07572-.10137.07572a15.11959,15.11959,0,1,1-8.7323-27.45919h23.23027A44.16143,44.16143,0,0,0,690.991,89.99249c-13.84429,29.52352-53.81873,61.05967-78.67827,93.5248,23.17552-6.65871,53.81019,2.72748,77.068-1.805,24.01951-4.68068,45.91953-22.9389,45.91953-47.41048,0-1.008-.0457-2.00449-.11185-2.99575Z"/><path class="cls-2" d="M75.48115,110.87658c-7.05052-4.22966-16.71367-8.32267-28.2769-8.32267-8.95387,0-15.51309,3.03234-15.51309,8.88554,0,6.20458,9.38008,7.685,20.30887,9.58831l4.08975.706c19.17988,3.3154,31.23767,12.26926,31.23767,28.4168,0,23.48112-20.2373,33.28091-41.3921,33.28091-16.42735,0-32.50656-4.30123-43.43535-12.55232l11.778-19.17663c7.54181,5.14717,17.97931,10.36592,31.86886,10.36592,8.88554,0,15.653-3.03234,15.653-9.1686,0-5.92152-6.62756-7.61339-19.53127-9.59157l-4.93569-.77435c-20.30562-3.17224-31.306-12.33759-30.9546-30.10867.35464-19.17662,16.71041-31.306,39.76856-31.306,13.32668,0,24.88992,2.1864,39.84014,10.43749Z"/><path class="cls-2" d="M125.20893,181.59648H101.65948V82.88274h23.54945Z"/><path class="cls-2" d="M185.36444,82.88274c30.883,0,51.26022,19.59959,51.26022,49.35687s-20.37719,49.35687-51.26022,49.35687h-42.238V82.88274Zm-18.68858,21.786v55.14174h18.194c18.33395,0,27.14465-11.63481,27.14465-27.57087,0-16.14428-8.8107-27.57087-27.14465-27.57087Z"/><path class="cls-2" d="M326.05268,181.59648H250.46541V82.88274h75.30421v21.22313H274.01485v17.06505h48.72243v21.1548H274.01485v18.05089h52.03783Z"/><path class="cls-2" d="M374.017,142.534H365.6976v39.06253H342.14816V82.88274H365.6976v38.42808h8.5309l28.34522-38.42808h28.98293l-38.28818,48.15955,41.46043,50.55419H405.11477Z"/><path class="cls-2" d="M466.0544,181.59648H442.505V82.88274H466.0544Z"/><path class="cls-2" d="M575.7067,104.8119l-20.66026,11.843c-5.14717-8.38774-13.2551-13.04036-23.47786-13.04036-15.58467,0-27.14791,11.70314-27.14791,28.625,0,18.33395,12.62065,28.62829,27.21623,28.62829,10.01453,0,18.194-4.5843,23.8325-12.972l19.31979,13.67807c-9.02544,13.46658-24.044,21.85757-42.94081,21.85757-30.46005,0-51.96624-21.2947-51.96624-51.19189,0-29.89393,21.50619-51.19189,51.96624-51.19189C550.67688,81.04772,567.3157,89.86493,575.7067,104.8119Z"/><path class="cls-2" d="M620.78185,142.534h-8.31941v39.06253H588.913V82.88274h23.54944v38.42808h8.5309l28.34522-38.42808h28.98293l-38.28818,48.15955,41.46042,50.55419H651.87961Z"/><rect class="cls-1" x="77.96771" y="2.32867" width="13.05047" height="38.23032"/><path class="cls-1" d="M62.269,2.68979l-26.491,16.17926a1.17654,1.17654,0,0,1-1.2277,0L8.05824,2.68979a3.63453,3.63453,0,0,0-1.89343-.53271H6.13223A3.63164,3.63164,0,0,0,2.5,5.78931V40.559H15.54216V24.05984a1.30457,1.30457,0,0,1,1.98488-1.113l14.84614,9.0824a4.65215,4.65215,0,0,0,4.78045.04489l15.66616-9.18881a1.30451,1.30451,0,0,1,1.96459,1.125V40.559H67.82654V5.78931a3.63163,3.63163,0,0,0-3.63222-3.63223h-.0326A3.62727,3.62727,0,0,0,62.269,2.68979Z"/><path class="cls-1" d="M156.217,2.31936H142.98167v17.543a1.30459,1.30459,0,0,1-1.9177,1.15122L106.76382,2.74566a3.62944,3.62944,0,0,0-1.70687-.4263h-.02328a3.63163,3.63163,0,0,0-3.63223,3.63222V40.559h13.13V23.29668a1.30436,1.30436,0,0,1,1.916-1.15188l34.43649,18.26488a3.63106,3.63106,0,0,0,1.70221.42365h0a3.63164,3.63164,0,0,0,3.63223-3.63223V2.31936Z"/><path class="cls-1" d="M166.80978,40.54968V2.31936h6.06869V40.54968Z"/><path class="cls-1" d="M207.82738,41.38632c-16.155,0-27.615-7.66382-27.615-19.95147-.00035-12.21949,11.52881-19.95214,27.615-19.95214,16.08582,0,27.68412,7.66282,27.68412,19.95147S224.18918,41.38632,207.82738,41.38632Zm0-34.79562c-12.01233,0-21.26365,5.247-21.26365,14.84348,0,9.66566,9.25132,14.84249,21.26365,14.84249s21.33281-5.17783,21.33281-14.84248C229.16019,11.8377,219.83968,6.5907,207.82738,6.5907Z"/></svg>